<svg xmlns="http://www.w3.org/2000/svg" viewBox="0 0 24 24"><rect width="24" height="24" rx="6" fill="#3182f6"/><g fill="none" stroke-linecap="round"><path d="M12 12C13 10 14 8.5 15.5 8.5a3.5 3.5 0 0 1 0 7C14 15.5 13 14 12 12S10 8.5 8.5 8.5a3.5 3.5 0 0 0 0 7C10 15.5 11 14 12 12Z" stroke="#fff" stroke-width="2"/><path d="M10.6 14.2C11.1 13.6 11.5 12.9 12 12S12.9 10.4 13.4 9.8" stroke="#3182f6" stroke-width="5" stroke-linecap="butt"/><path d="M8.5 15.5C10 15.5 11 14 12 12S14 8.5 15.5 8.5" stroke="#fff" stroke-width="2"/></g></svg>
